<?xml version="1.0" standalone="no"?><!DOCTYPE svg PUBLIC "-//W3C//DTD SVG 1.1//EN" "http://www.w3.org/Graphics/SVG/1.1/DTD/svg11.dtd"><svg t="1573302103468" class="icon" viewBox="0 0 1024 1024" version="1.1" xmlns="http://www.w3.org/2000/svg" p-id="3805" xmlns:xlink="http://www.w3.org/1999/xlink" width="1200" height="1200"><defs><style type="text/css"></style></defs><path d="M37.9392 177.9712h948.1216v796.9792H37.9392z" fill="#F7F2EB" p-id="3806"></path><path d="M986.0608 982.6304H37.9392a7.68 7.68 0 0 1-7.68-7.68V177.9712a7.68 7.68 0 0 1 7.68-7.68h948.1216a7.68 7.68 0 0 1 7.68 7.68v796.9792a7.68 7.68 0 0 1-7.68 7.68z m-940.4416-15.36h932.7616V185.6512H45.6192z" fill="#A48B78" p-id="3807"></path><path d="M115.5584 243.2512h792.8832v666.4704H115.5584z" fill="#FFFFFF" p-id="3808"></path><path d="M908.4416 917.4016H115.5584a7.68 7.68 0 0 1-7.68-7.68V243.2512a7.68 7.68 0 0 1 7.68-7.68h792.8832a7.68 7.68 0 0 1 7.68 7.68v666.4704a7.68 7.68 0 0 1-7.68 7.68z m-785.2032-15.36h777.5232V250.88H123.2384z" fill="#A48B78" p-id="3809"></path><path d="M678.5536 340.0704l-41.1136 70.656 26.2144 62.208-82.6368 34.816-0.6144 1.0752 191.5392 111.4112 98.1504-168.704-191.5392-111.4624z" fill="#FFFFFF" p-id="3810"></path><path d="M771.9424 627.9168a7.5776 7.5776 0 0 1-3.84-1.024l-191.5904-111.4624a7.7312 7.7312 0 0 1-2.7648-10.24l0.6656-1.0752a7.68 7.68 0 0 1 3.6352-3.2256l75.52-31.7952-23.1936-55.3984a7.6288 7.6288 0 0 1 0.4608-6.8096l40.96-70.656a7.6288 7.6288 0 0 1 10.496-2.7648l191.6928 111.4112a7.68 7.68 0 0 1 3.5328 4.7104 7.5264 7.5264 0 0 1-0.768 5.8368l-98.1504 168.96a7.6288 7.6288 0 0 1-6.656 3.5328zM596.736 509.44l172.4416 100.3008 90.4192-155.4432-178.2784-103.68-35.328 60.672L670.72 469.9648a7.68 7.68 0 0 1-4.096 10.24z" fill="#A48B78" p-id="3811"></path><path d="M383.616 379.05408L587.8784 293.0176l75.76064 179.87072-204.26752 86.03648z" fill="#FFFFFF" p-id="3812"></path><path d="M459.3664 566.6304a7.936 7.936 0 0 1-2.8672-0.5632 7.7312 7.7312 0 0 1-4.1984-4.1472l-75.776-179.8656a7.68 7.68 0 0 1 4.1472-10.24l204.2368-86.016a7.68 7.68 0 0 1 10.24 4.096L670.72 469.9648a7.4752 7.4752 0 0 1 0 5.8368 7.5776 7.5776 0 0 1-4.1472 4.1984l-204.2368 86.016a7.7824 7.7824 0 0 1-2.9696 0.6144zM393.6768 383.1296l69.7856 165.7856 190.1056-80.0768L583.68 303.104zM749.9776 185.6512h-476.16a7.68 7.68 0 0 1-3.6864-14.4384L508.3648 42.2912a7.6288 7.6288 0 0 1 7.2704 0l238.0288 128.9216a7.68 7.68 0 0 1-3.6864 14.4384z m-445.44-15.36h415.4368L512 57.7536z" fill="#A48B78" p-id="3813"></path><path d="M199.7824 625.7152h416.0512v222.2592H199.7824z" fill="#FFFFFF" p-id="3814"></path><path d="M615.8336 855.6544H199.68a7.68 7.68 0 0 1-7.68-7.68v-222.2592a7.68 7.68 0 0 1 7.68-7.68h416.0512a7.68 7.68 0 0 1 7.68 7.68v222.2592a7.68 7.68 0 0 1-7.5776 7.68z m-408.3712-15.36h400.6912v-206.8992H207.4624z" fill="#A48B78" p-id="3815"></path><path d="M392.96 695.9616H273.8176a7.68 7.68 0 1 1 0-15.36h119.1424a7.68 7.68 0 0 1 0 15.36zM467.3536 744.4992H348.16a7.68 7.68 0 0 1 0-15.36h119.1936a7.68 7.68 0 0 1 0 15.36zM541.7984 793.088H422.656a7.68 7.68 0 1 1 0-15.36h119.1424a7.68 7.68 0 1 1 0 15.36z" fill="#A48B78" p-id="3816"></path><path d="M545.4336 376.1152m-24.4224 0a24.4224 24.4224 0 1 0 48.8448 0 24.4224 24.4224 0 1 0-48.8448 0Z" fill="#F7F2EB" p-id="3817"></path><path d="M545.4848 408.2176a32.1024 32.1024 0 1 1 29.5424-44.544 32.1024 32.1024 0 0 1-29.5424 44.544z m0-48.8448a16.9984 16.9984 0 0 0-6.5024 1.3312 16.7424 16.7424 0 1 0 21.9136 8.9088 16.7936 16.7936 0 0 0-15.4624-10.24z" fill="#A48B78" p-id="3818"></path><path d="M762.368 531.5072m-24.4224 0a24.4224 24.4224 0 1 0 48.8448 0 24.4224 24.4224 0 1 0-48.8448 0Z" fill="#F7F2EB" p-id="3819"></path><path d="M762.2656 563.6096a32.1024 32.1024 0 0 1-27.648-48.2816A32.1024 32.1024 0 0 1 793.6 523.264a32.1024 32.1024 0 0 1-22.8352 39.2704 32.9216 32.9216 0 0 1-8.4992 1.0752z m0-48.8448a15.36 15.36 0 0 0-4.3008 0.5632 16.6912 16.6912 0 1 0 20.48 11.8784 16.7424 16.7424 0 0 0-16.1792-12.4416z" fill="#A48B78" p-id="3820"></path></svg>