<?xml version="1.0" standalone="no"?><!DOCTYPE svg PUBLIC "-//W3C//DTD SVG 1.1//EN" "http://www.w3.org/Graphics/SVG/1.1/DTD/svg11.dtd"><svg t="1573286702751" class="icon" viewBox="0 0 1024 1024" version="1.1" xmlns="http://www.w3.org/2000/svg" p-id="9339" xmlns:xlink="http://www.w3.org/1999/xlink" width="1200" height="1200"><defs><style type="text/css"></style></defs><path d="M357.3248 487.41376c0 30.09536-24.42752 54.4256-54.56896 54.4256-30.09536 0-54.53312-24.33024-54.53312-54.4256 0-30.09024 24.43264-54.52288 54.53312-54.52288C332.89728 432.88576 357.3248 457.3184 357.3248 487.41376L357.3248 487.41376M357.3248 487.41376 357.3248 487.41376zM982.21568 457.22112c0-227.05152-212.05504-411.79648-472.77568-411.79648-260.72576 0-472.7808 184.74496-472.7808 411.79648 0 134.88128 75.9808 261.21728 203.41248 338.19136l0 129.81248c0 9.24672 5.0688 17.67936 13.16352 21.94944 3.72736 2.08384 7.64416 3.08736 11.86816 3.08736 4.864 0 9.63072-1.38752 13.80864-4.1728l59.88864-39.53152c1.14688-0.69632 2.23744-1.59232 2.87744-2.19136l67.7376-45.09184c33.77664 6.35904 67.44576 9.64096 100.1216 9.64096C770.16064 868.81792 982.21568 684.17024 982.21568 457.22112L982.21568 457.22112M277.41696 759.26528c-119.48032-67.33824-190.7456-180.2752-190.7456-302.14144 0-199.44448 189.65504-361.73824 422.76864-361.73824 233.11872 0 422.77376 162.29376 422.77376 361.73824 0 199.43936-189.71136 361.73312-422.76864 361.73312-32.57856 0-66.34496-3.57376-100.31616-10.624-6.45632-1.48992-13.312-0.09728-18.9696 3.67616l-79.26272 52.8384c-1.09056 0.5888-2.67776 1.98656-2.67776 1.98656l-18.07872 11.91936 0-97.62816C290.13504 771.97824 285.21472 763.72992 277.41696 759.26528L277.41696 759.26528M277.41696 759.26528 277.41696 759.26528zM573.10208 472.1152c0 30.09536-24.42752 54.6304-54.62528 54.6304-30.09024 0-54.52288-24.53504-54.52288-54.6304 0-30.09536 24.43264-54.43584 54.52288-54.43584C548.66944 417.6896 573.10208 442.02496 573.10208 472.1152L573.10208 472.1152M573.10208 472.1152 573.10208 472.1152zM786.36032 472.1152c0 30.09536-24.43776 54.6304-54.53312 54.6304s-54.528-24.53504-54.528-54.6304c0-30.09536 24.43264-54.43584 54.528-54.43584C761.92256 417.6896 786.36032 442.02496 786.36032 472.1152L786.36032 472.1152M786.36032 472.1152 786.36032 472.1152z" p-id="9340" fill="#BFCBD9"></path></svg>